G75*
G70*
%OFA0B0*%
%FSLAX24Y24*%
%IPPOS*%
%LPD*%
%AMOC8*
5,1,8,0,0,1.08239X$1,22.5*
%
%ADD10C,0.0000*%
D10*
X000140Y001511D02*
X032936Y001511D01*
X039235Y001511D01*
X039235Y007810D01*
X032936Y007810D01*
X032936Y001511D01*
X026220Y004876D02*
X026222Y004903D01*
X026228Y004930D01*
X026237Y004956D01*
X026250Y004980D01*
X026266Y005003D01*
X026285Y005022D01*
X026307Y005039D01*
X026331Y005053D01*
X026356Y005063D01*
X026383Y005070D01*
X026410Y005073D01*
X026438Y005072D01*
X026465Y005067D01*
X026491Y005059D01*
X026515Y005047D01*
X026538Y005031D01*
X026559Y005013D01*
X026576Y004992D01*
X026591Y004968D01*
X026602Y004943D01*
X026610Y004917D01*
X026614Y004890D01*
X026614Y004862D01*
X026610Y004835D01*
X026602Y004809D01*
X026591Y004784D01*
X026576Y004760D01*
X026559Y004739D01*
X026538Y004721D01*
X026516Y004705D01*
X026491Y004693D01*
X026465Y004685D01*
X026438Y004680D01*
X026410Y004679D01*
X026383Y004682D01*
X026356Y004689D01*
X026331Y004699D01*
X026307Y004713D01*
X026285Y004730D01*
X026266Y004749D01*
X026250Y004772D01*
X026237Y004796D01*
X026228Y004822D01*
X026222Y004849D01*
X026220Y004876D01*
X026220Y006845D02*
X026222Y006872D01*
X026228Y006899D01*
X026237Y006925D01*
X026250Y006949D01*
X026266Y006972D01*
X026285Y006991D01*
X026307Y007008D01*
X026331Y007022D01*
X026356Y007032D01*
X026383Y007039D01*
X026410Y007042D01*
X026438Y007041D01*
X026465Y007036D01*
X026491Y007028D01*
X026515Y007016D01*
X026538Y007000D01*
X026559Y006982D01*
X026576Y006961D01*
X026591Y006937D01*
X026602Y006912D01*
X026610Y006886D01*
X026614Y006859D01*
X026614Y006831D01*
X026610Y006804D01*
X026602Y006778D01*
X026591Y006753D01*
X026576Y006729D01*
X026559Y006708D01*
X026538Y006690D01*
X026516Y006674D01*
X026491Y006662D01*
X026465Y006654D01*
X026438Y006649D01*
X026410Y006648D01*
X026383Y006651D01*
X026356Y006658D01*
X026331Y006668D01*
X026307Y006682D01*
X026285Y006699D01*
X026266Y006718D01*
X026250Y006741D01*
X026237Y006765D01*
X026228Y006791D01*
X026222Y006818D01*
X026220Y006845D01*
X032936Y007810D02*
X032936Y008847D01*
X000140Y008847D01*
X000140Y001511D01*
M02*
