%
M48
M72
T01C0.0236
T02C0.0320
T03C0.0394
T04C0.0400
T05C0.0433
T06C0.0472
%
T01
X4038Y4227
X3999Y5802
X3999Y6511
X5141Y6511
X9353Y7101
X10141Y7456
X13251Y7298
X18330Y7023
X19767Y7613
X18369Y7810
X21637Y7633
X24078Y7692
X22463Y6196
X18999Y4857
X18330Y4739
X16400Y5369
X12936Y5487
X18684Y2849
X20928Y2889
X21046Y2062
X34865Y2534
X35495Y2534
X36125Y2534
X36125Y6629
X35534Y6629
X34865Y6629
X1125Y8046
T02
X25511Y2814
X26511Y2814
X27511Y2814
T03
X27991Y4679
X26417Y4876
X24448Y4797
X22505Y5102
X26417Y6845
X27991Y7042
X24448Y6923
X4788Y5102
T04
X2806Y2991
X1036Y3511
X2806Y3991
X1036Y4511
X2806Y4991
X1036Y5511
X2806Y5991
X1036Y6511
X2806Y6991
X38314Y6172
X38314Y5172
X38314Y4172
X38314Y3172
T05
X31820Y3641
X30836Y3641
X29852Y3641
X29852Y2381
X30836Y2381
X31820Y2381
T06
X32124Y4570
X30332Y4570
X30332Y7129
X32124Y7129
M30
